<svg xmlns="http://www.w3.org/2000/svg" id="uuid-5ee01a46-9250-4ec4-af2a-5e6ccabd2f41" viewBox="0 0 207.67 61.83">
  <defs>
    <style>
      .uuid-62089e8b-849d-4560-a93b-221019f09e7c{fill:#f22b0c}.uuid-591a01a2-7e97-427e-9709-418b853f9482{fill:#bd1a01}
    </style>
  </defs>
  <g id="uuid-6c3012f7-3d64-4cb9-967f-d657597570f6">
    <path d="m16.78 34.15 8.86.07c5.26.07 7.92 3.17 7.92 4.39 0 .65-.29 1.3-.79 2.09-.36.58.5.94 1.44.94 1.95 0 4.46-.97 5.8-2.41l.15-.15.15-.15.15-.15.15-.15.15-.15.15-.15.15-.15.15-.15.15-.15.15-.15.15-.15.15-.15c.68-.67 1.12-1.44 1.12-2.27 0-4.25-8.06-5.4-11.52-5.4l-13.11-.07c-7.42 0-11.95-4.39-11.95-7.56 0-.36 0-.94-.43-.94-.38 0-.69.17-.94.45l-.15.15-.15.15-.15.15-.15.15-.15.15-.15.15-.15.15-.15.15-.15.15-.15.15-.15.15-.15.15c-.75.64-1.02 2.25-1.02 4.09 0 3.53 3.02 6.41 14.62 6.62Zm84.45.58c-.22.22-.07.58-.36.87-.07.07-.14.21-.14.36 0 .5.5.86.58.86s.22-.07.36-.14c.27-.11.55-.3.88-.67.05-.05.1-.09.15-.15.05-.05.1-.09.15-.15.05-.05.1-.09.15-.15.05-.05.1-.09.15-.15.05-.05.1-.09.15-.15.05-.05.1-.09.15-.15.05-.05.1-.09.15-.15.05-.05.1-.09.15-.15.05-.05.1-.09.15-.15.05-.05.1-.09.15-.15.05-.05.1-.09.15-.15.05-.05.1-.09.15-.15.15-.15.31-.32.49-.56l5.26-7.42c.5-.65.94-1.37.94-2.16 0-1.01-1.15-2.02-1.66-2.59l-7.13-6.77c-.36-.29-.65-.58-.94-.58-.79 0-1.58.65-2.02.86l-6.12 3.31c-.14.09-.24.17-.32.27-.06.05-.11.1-.15.15-.06.05-.11.1-.15.15-.06.05-.11.1-.15.15-.06.05-.11.1-.15.15-.06.05-.11.1-.15.15-.06.05-.11.1-.15.15-.06.05-.11.1-.15.15-.06.05-.11.1-.15.15-.06.05-.11.1-.15.15-.06.05-.11.1-.15.15-.06.05-.11.1-.15.15-.06.05-.11.1-.15.15-.23.18-.33.39-.33.74l-.58 19.08c0 .79-.07 1.66-.36 2.66-.43 1.66-1.87 3.03-1.87 3.67 0 .22 1.37.5 1.94.58 2.02.29 5.26 1.58 7.92 3.1.43.21.86.36 1.22.36.22 0 .86-.29 1.94-1.01l7.06-4.82c.21-.13.34-.23.41-.33.07-.05.11-.1.15-.15.07-.05.11-.1.15-.15.07-.05.11-.1.15-.15.06-.05.11-.1.15-.15.07-.05.11-.1.15-.15.06-.05.11-.1.15-.15.07-.05.11-.1.15-.15.06-.05.11-.1.15-.15.07-.05.11-.1.15-.15.06-.05.11-.1.15-.15.07-.05.11-.1.15-.15.06-.05.11-.1.15-.15.16-.13.24-.25.24-.4 0-.5-.58-.94-.72-.94-.22 0-.5.07-1.01.43l-2.88 1.94c-.29.14-.5.29-1.01.29-.58 0-1.44-.22-2.23-.65-1.8-.94-2.95-1.3-2.95-3.31V26.4l2.86 2.86c.22.22.86.94.86 1.66 0 .94-.5 1.8-.86 2.23l-1.3 1.58Zm56.93-17.86c.05-.05.11-.09.15-.15.05-.05.11-.09.15-.15.05-.05.11-.09.15-.15.05-.05.11-.09.15-.15.05-.05.11-.09.15-.15.29-.24.44-.61.44-1.14 0-.43-.29-.36-1.44-.36h-3.67c-1.94 0-3.53-1.58-3.53-3.6V5.76c0-.5-.43-.94-.94-.94-.29 0-.58.14-.72.36l-.05.06s-.08.05-.11.09l-.05.06s-.08.05-.11.09l-.05.06s-.08.05-.11.09l-.05.06s-.08.05-.11.09l-.05.06s-.08.05-.11.09l-.05.06s-.08.05-.11.09l-.05.06s-.08.05-.11.09l-.05.06s-.08.05-.11.09l-.05.06s-.08.05-.11.09l-.05.06s-.08.05-.11.09l-.05.06s-.08.05-.11.09l-.05.06s-.08.05-.11.09l-.05.06s-.08.05-.11.09l-8.28 11.09c-.14.14-.22.29-.22.5 0 .43.29.72.72.72h2.23c.43 0 .72.29.72.72v22.03c0 .7-.12 1.24-.29 1.68l-.04.03s-.06.08-.1.12l-.05.03s-.06.08-.1.12l-.05.03s-.06.08-.1.12l-.05.03s-.06.08-.1.12l-.05.03s-.06.08-.1.12l-.05.03s-.06.08-.1.12l-.05.03s-.06.08-.1.12l-.05.03s-.06.08-.1.12l-.05.03s-.06.08-.1.12l-.05.03s-.06.08-.1.12l-.05.03s-.06.08-.1.12l-.05.03s-.06.08-.1.12l-.05.03s-.06.08-.1.12l-.05.03c-.29.22-.43.5-.43.86 0 .43.22.79.58.94l5.4 2.59c.29.14.43.29.79.29.29 0 .58-.14.79-.29l7.7-6.62c.12-.1.23-.2.31-.3.05-.05.11-.1.15-.15.05-.05.11-.1.15-.15.05-.05.11-.1.15-.15.05-.05.11-.1.15-.15.05-.05.11-.1.15-.15.05-.05.11-.1.15-.15.05-.05.11-.1.15-.15.05-.05.11-.1.15-.15.05-.05.11-.1.15-.15.05-.05.11-.1.15-.15.05-.05.11-.1.15-.15.05-.05.11-.1.15-.15.33-.31.52-.62.27-.93l-.58-.72c-.43-.5-1.01.07-1.44.36l-1.58 1.22c-.29.22-.5.29-.65.29-.22 0-.5-.07-.86-.29l-2.45-1.29c-.58-.29-.43-1.01-.22-1.95l3.6-17.5c.14-.6.37-1.07.57-1.44.2-.13.4-.27.63-.41.5-.36 1.15-.5 1.8-.5.51 0 .86-.16 1.08-.45.05-.05.11-.09.15-.15.05-.05.11-.09.15-.15.05-.05.11-.09.15-.15.05-.05.11-.09.15-.15.05-.05.11-.09.15-.15.05-.05.11-.09.15-.15.05-.05.11-.09.15-.15Z"/>
    <path d="M53.24 30.67c0-6.98-7.06-11.23-13.83-11.16l-8.5.07c-11.02.07-14.33-3.67-14.33-6.91 0-.95.18-1.97.66-2.88.96-.52 2.24-.84 3.93-.84 3.1 0 8.5 3.67 11.95 5.69l.15-.15.15-.15.15-.15.15-.15.15-.15.15-.15.15-.15.15-.15.15-.15.12-.12.03-.03.04-.04c1.7-1.68 3.91-3.8 5.53-5.43l.15-.15.15-.15.16-.16.14-.14.16-.16.14-.14.16-.16.14-.14.16-.16.14-.14.16-.16.14-.14c1.36-1.36 2.36-2.41 2.36-2.6 0-.29-.36-.43-1.01-.43-.29 0-1.01.5-2.09 1.44s-1.73 1.44-1.8 1.44c-1.22 0-6.7-2.59-8.93-4.03C29.3.9 28.36.54 27.64.54c-4.12 0-10.21 2.97-14.16 6.94l-.15.15-.15.15-.15.15-.15.15-.15.15-.15.15-.15.15-.15.15-.15.15-.15.15-.15.15-.15.15c-2.41 2.38-4.06 5.13-4.06 7.83 0 7.56 9 7.27 12.46 7.34l9.5.29c10.54.31 19.27 10.63 13.58 18.05-.47.37-.97.74-1.53 1.08-.21.13-.35.25-.45.36-.06.05-.11.1-.15.15-.06.05-.11.1-.15.15-.06.05-.11.1-.15.15-.06.05-.11.1-.15.15-.06.05-.11.1-.15.15-.06.05-.11.1-.15.15-.06.05-.11.1-.15.15-.06.05-.11.1-.15.15-.06.05-.11.1-.15.15-.06.05-.11.1-.15.15-.06.05-.11.1-.15.15-.06.05-.11.1-.15.15-.4.34-.35.64-.35.94 0 .22.94.29 2.74.36.98.03 2.57-.91 4.17-2.52l.2-.2.15-.15.15-.15.15-.15.15-.15.15-.15.15-.15.15-.15.15-.15.15-.15.15-.15c.07-.07.13-.14.2-.2 2.67-2.65 5.39-7.17 5.39-12.22Zm-42.27 6.98c-3.56 0-6.19 1.21-7.66 2.83l-.15.15-.15.15-.15.15-.15.15-.15.15-.15.15-.15.15-.15.15-.15.15-.15.15-.15.15-.15.15c-.97 1-1.49 2.16-1.49 3.3 0 3.17 6.77 7.63 10.3 7.63 1.15 0 1.88-.21 2.17-.59.06-.05.11-.1.15-.15.06-.05.11-.1.15-.15.06-.05.11-.1.15-.15.06-.05.11-.1.15-.15.06-.05.11-.1.15-.15.06-.05.11-.1.15-.15.06-.05.11-.1.15-.15.06-.05.11-.1.15-.15.06-.05.11-.1.15-.15.06-.05.11-.1.15-.15.06-.05.11-.1.15-.15.06-.05.11-.1.15-.15.19-.15.29-.34.29-.57 0-.36-.5-.65-1.58-.86-1.73-.36-6.34-2.52-6.34-6.62v-.05c.56-.21 1.21-.36 1.98-.36 5.83 0 13.03 5.83 16.13 8.71l1.8 1.66c1.22 1.15 9.72-2.16 9.72-2.45v-.03c.09-.05.16-.1.16-.12v-.03c.09-.05.16-.1.16-.12v-.03c.09-.05.16-.1.16-.12v-.03c.09-.05.16-.1.16-.12v-.03c.09-.05.16-.1.16-.12v-.03c.09-.05.16-.1.16-.12v-.03c.09-.05.16-.1.16-.12v-.03c.09-.05.16-.1.16-.12v-.03c.09-.05.16-.1.16-.12v-.03c.09-.05.16-.1.16-.12v-.03c.09-.05.16-.1.16-.12v-.03c.09-.05.16-.1.16-.12v-.03c.09-.05.16-.1.16-.12 0-1.15-11.45-10.66-27.29-10.66Z"/>
    <path d="M77.07 14.47c-.5 0-1.37.07-2.38.79l-4.1 3.1c-.72.58-1.3 1.15-1.8 1.15-.36 0-.86-.22-1.58-.86l-2.88-2.66c-.58-.58-1.3-1.44-2.23-1.44-.72 0-1.66.79-2.23 1.15l-5.26 3.67c-.05.03-.09.08-.13.13l-.02.02c-.05.03-.09.08-.13.13l-.02.02c-.05.03-.09.08-.13.13l-.02.02c-.05.03-.09.08-.13.13l-.02.02c-.05.03-.09.08-.13.13l-.02.02c-.05.03-.09.08-.13.13l-.02.02c-.05.03-.09.08-.13.13l-.02.02c-.05.03-.09.08-.13.13l-.02.02c-.05.03-.09.08-.13.13l-.02.02c-.05.03-.09.08-.13.13l-.02.02c-.05.03-.09.08-.13.13l-.02.02c-.05.03-.09.08-.13.13l-.02.02c-.05.03-.09.08-.13.13l-.02.02c-.22.14-.29.5-.29.79 0 .65.5 1.15 1.15 1.15.22 0 .43 0 .65-.14l.72-.43c.22-.14.43-.22.72-.22.43 0 .79.22 1.08.5l.36.36c1.08 1.08 1.66 1.8 1.66 2.74v12.17c0 .46-.13.88-.29 1.27h-2.86c-.47 0-.88.2-1.15.52l-.15.15-.15.15-.15.15-.15.15-.15.15-.15.15-.15.15-.15.15-.15.15-.15.15-.15.15-.15.15c-.32.27-.52.68-.52 1.15 0 .86.65 1.51 1.51 1.51h3.6c1.08 0 1.58.43 1.58 1.3v9.87c0 .55-.06.97-.16 1.29l-.25.19s-.09.09-.13.14l-.02.02s-.09.09-.13.14h-.02c-.04.05-.09.1-.13.15l-.02.02s-.09.09-.13.14h-.02c-.04.05-.09.1-.13.15l-.02.02s-.09.09-.13.14h-.02c-.04.05-.09.1-.13.15l-.02.02s-.09.09-.13.14h-.02c-.04.05-.09.1-.13.15l-.02.02s-.09.09-.13.14h-.02c-.04.05-.09.1-.13.15h-.02c-.04.05-.09.1-.13.15h-.02c-.04.05-.09.1-.13.15h-.02c-.22.23-.58.59-.58.95 0 .29.36 1.22.79 1.08 5.04-2.09 6.26-1.58 6.91-1.58 4.68 0 7.78 2.81 8.21 2.16l.05-.08s.08-.04.1-.07l.05-.08s.08-.04.1-.07l.05-.08s.08-.04.1-.07l.05-.08s.08-.04.1-.07l.05-.08s.08-.04.1-.07l.05-.08s.08-.04.1-.07l.05-.08s.08-.04.1-.07l.05-.08s.08-.04.1-.07l.05-.08s.08-.04.1-.07l.05-.08s.08-.04.1-.07l.05-.08s.08-.04.1-.07l.05-.08s.08-.04.1-.07l.05-.08s.08-.04.1-.07l.29-.43c.22-.21.14-1.08-.94-1.73l-2.09-1.22c-1.3-.79-3.1-1.3-3.1-3.53 0-1.76.29-3.25.75-4.35.05 0 .11-.02.16-.02.58 0 1.58.72 2.67 2.45.26.44 1.04-.19 1.85-1.01l.15-.15.15-.15.15-.15.15-.15.15-.15.15-.15.15-.15.15-.15.15-.15.15-.15.15-.15.15-.15c.57-.56 1.16-1.24 1.61-1.75 1.02-.95 1.8-1.57 2.5-1.97.28-.17.51-.36.7-.54.07-.06.12-.11.18-.17.06-.05.1-.1.15-.15.06-.05.1-.1.15-.15.06-.05.1-.1.15-.15.06-.05.1-.1.15-.15.06-.05.1-.1.15-.15.06-.05.1-.1.15-.15.06-.05.1-.1.15-.15.06-.05.1-.1.15-.15.06-.05.1-.1.15-.15.06-.05.1-.1.15-.15.07-.06.12-.12.17-.18.52-.46.79-.96.84-1.51l1.37-17.57c.36-4.68-4.83-8.42-6.91-8.42Zm-3.19 27.66h-.05l-2.95-.65c-1.15-.29-1.87-1.22-1.87-2.66V23.63c0-.19.02-.37.04-.54l2.52-1.16c2.16-1.01 2.3.72 2.3 1.22v18.99Zm60.85-24.49-6.7-3.6c-.25-.14-.43-.04-.61.18-.06.04-.11.09-.17.16-.05.04-.1.09-.15.15-.05.04-.1.09-.15.15-.05.04-.1.09-.15.15-.05.04-.1.09-.15.15-.05.04-.1.09-.15.15-.05.04-.1.09-.15.15-.05.04-.1.09-.15.15-.05.04-.1.09-.15.15-.05.04-.1.09-.15.15-.05.04-.1.09-.15.15-.06.04-.11.1-.16.17-.07.06-.13.13-.2.22-1.26.95-3.15 2.2-5.13 3.31-.9.49-1.53.93-1.92 1.33-.06.05-.1.1-.15.15-.06.05-.1.1-.15.15-.06.05-.1.1-.15.15-.06.05-.1.1-.15.15-.06.05-.1.1-.15.15-.06.05-.1.1-.15.15-.06.05-.1.1-.15.15-.06.05-.1.1-.15.15-.06.05-.1.1-.15.15-.06.05-.1.1-.15.15-.06.05-.1.1-.15.15-.06.05-.1.1-.15.15-.4.36-.6.69-.6.98v16.49c0 3.17-.58 4.61-1.08 5.33-.72 1.08-.22 1.58.79 1.58 2.02 0 6.26 1.66 8.35 3.1 1.08.68 1.49.33 2.18-.38l.15-.15.15-.15.15-.15c.05-.05.1-.09.14-.14l.01-.01.03-.03 6.9-5.9c.23-.23.44-.39.58-.54.06-.05.11-.1.15-.15.06-.05.11-.1.15-.15.06-.05.11-.1.15-.15.06-.05.11-.1.15-.15.06-.05.11-.1.15-.15.06-.05.11-.1.15-.15.06-.05.11-.1.15-.15.06-.05.11-.1.15-.15.06-.05.11-.1.15-.15.06-.05.11-.1.15-.15.06-.05.11-.1.15-.15.06-.05.11-.1.15-.15.17-.15.29-.28.29-.4 0-.14 0-.29-.14-.5-.14-.22-.36-.43-.65-.43-.22 0-.5.07-1.01.43l-2.23 1.8c-.22.14-1.08.79-1.51.79-.22 0-.5-.07-.86-.22l-2.95-1.3c-1.01-.43-.86-1.66-.86-2.3V23.24c.31.14.63.39.91.55l3.24 1.94c.65.36 1.08.58 1.58.58.24 0 .57-.2.72-.4.06-.05.11-.1.15-.15.06-.05.11-.1.15-.15.06-.05.11-.1.15-.15.06-.05.11-.1.15-.15.06-.05.11-.1.15-.15.06-.05.11-.1.15-.15.06-.05.11-.1.15-.15.06-.05.11-.1.15-.15.06-.05.11-.1.15-.15.06-.05.11-.1.15-.15.06-.05.11-.1.15-.15.06-.05.11-.1.15-.15.11-.08.2-.18.22-.26l2.09-3.46c.72-1.22-.29-1.8-2.02-2.74Zm44.5-2.67c-.29-.36-.58-.65-1.15-.65-.48 0-.76.16-1.03.47l-.15.15-.15.15-.15.15-.15.15-.15.15-.15.15-.15.15-.15.15-.15.15-.15.15-.15.15-.15.15c-.28.25-.52.64-.92 1.19l-1.03 1.46c-.06 0-.11.02-.17.02-.36 0-.86-.22-1.37-.79l-3.1-3.24c-.5-.5-.86-.72-1.22-.72s-.94-.14-1.22.22l-.13.14s-.01 0-.02.01l-.13.14s-.01 0-.02.01l-.13.14s-.01 0-.02.01l-.13.14s-.01 0-.02.01l-.13.14s-.01 0-.02.01l-.13.14s-.01 0-.02.01l-.13.14s-.01 0-.02.01l-.13.14s-.01 0-.02.01l-.13.14s-.01 0-.02.01l-.13.14s-.01 0-.02.01l-.13.14s-.01 0-.02.01l-.13.14s-.01 0-.02.01l-.13.14s-.01 0-.02.01l-5.98 6.19c.22.5.5.65 1.08.65h.72c.65 0 1.22.14 1.58.36.86.5 1.37 2.81 1.37 3.1v15.55c0 .35-.03.64-.08.91-.36.09-.66.17-.81.38-.06.04-.11.09-.15.15-.06.04-.11.09-.15.15-.06.04-.11.09-.15.15-.06.04-.11.09-.15.15-.06.04-.11.09-.15.15-.06.04-.11.09-.15.15-.06.04-.11.09-.15.15-.06.04-.11.09-.15.15-.06.04-.11.09-.15.15-.06.04-.11.09-.15.15-.06.04-.11.09-.15.15-.06.04-.11.09-.15.15-.16.1-.25.25-.25.5 0 .36.36.72.72.87.5.14 2.23 1.01 3.82 1.87 1.66.87 2.81 1.8 3.46 1.8.58 0 .79-.29 1.22-.58l7.78-5.11c.2-.12.31-.23.39-.32.06-.05.11-.1.15-.15.06-.05.11-.1.15-.15.06-.05.11-.1.15-.15.06-.05.11-.1.15-.15.06-.05.11-.1.15-.15.06-.05.11-.1.15-.15.06-.05.11-.1.15-.15.06-.05.11-.1.15-.15.06-.05.11-.1.15-.15.06-.05.11-.1.15-.15.06-.05.11-.1.15-.15.06-.05.11-.1.15-.15.31-.26.27-.44.27-.62 0-.29-.43-.86-.79-.86-.22 0-.43.14-.72.29l-1.73.94c-.36.22-.72.29-.79.29-1.51 0-2.23-1.66-2.23-3.03V24.27s.09.08.12.13l2.95 4.18c.29.36.65.65 1.15.65.37 0 .74-.17.97-.44.06-.05.1-.1.15-.15.06-.05.1-.1.15-.15.06-.05.1-.1.15-.15.06-.05.1-.1.15-.15.06-.05.1-.1.15-.15.06-.05.1-.1.15-.15.06-.05.1-.1.15-.15.06-.05.1-.1.15-.15.06-.05.1-.1.15-.15.06-.05.1-.1.15-.15.06-.05.1-.1.15-.15.06-.05.1-.1.15-.15.1-.08.19-.17.26-.29l2.88-4.46c.29-.43.5-.72.5-1.01 0-.36-.22-.58-.5-.94l-4.18-5.33Zm26.64 26.29c-.22 0-.5.07-1.01.43l-2.88 1.94c-.29.14-.5.29-1.01.29-.58 0-1.44-.22-2.23-.65-1.8-.94-2.95-1.3-2.95-3.31V26.4l2.86 2.86c.22.22.86.94.86 1.66 0 .94-.5 1.8-.86 2.23l-1.3 1.58c-.22.22-.07.58-.36.87-.07.07-.14.21-.14.36 0 .5.5.86.58.86s.22-.07.36-.14c.27-.11.55-.3.88-.67.05-.05.1-.09.15-.15.05-.05.1-.09.15-.15.05-.05.1-.09.15-.15.05-.05.1-.09.15-.15.05-.05.1-.09.15-.15.05-.05.1-.09.15-.15.05-.05.1-.09.15-.15.05-.05.1-.09.15-.15.05-.05.1-.09.15-.15.05-.05.1-.09.15-.15.05-.05.1-.09.15-.15.05-.05.1-.09.15-.15.15-.15.31-.32.49-.56l5.26-7.42c.5-.65.94-1.37.94-2.16 0-1.01-1.15-2.02-1.66-2.59l-7.13-6.77c-.36-.29-.65-.58-.94-.58-.79 0-1.58.65-2.02.86l-6.12 3.31c-.14.09-.24.17-.32.27-.06.05-.11.1-.15.15-.06.05-.11.1-.15.15-.06.05-.11.1-.15.15-.06.05-.11.1-.15.15-.06.05-.11.1-.15.15-.06.05-.11.1-.15.15-.06.05-.11.1-.15.15-.06.05-.11.1-.15.15-.06.05-.11.1-.15.15-.06.05-.11.1-.15.15-.06.05-.11.1-.15.15-.06.05-.11.1-.15.15-.23.18-.33.39-.33.74l-.58 19.08c0 .79-.07 1.66-.36 2.66-.43 1.66-1.87 3.03-1.87 3.67 0 .22 1.37.5 1.94.58 2.02.29 5.26 1.58 7.92 3.1.43.21.86.36 1.22.36.22 0 .86-.29 1.94-1.01l7.06-4.82c.21-.13.34-.23.41-.33.07-.05.11-.1.15-.15.07-.05.11-.1.15-.15.07-.05.11-.1.15-.15.06-.05.11-.1.15-.15.07-.05.11-.1.15-.15.06-.05.11-.1.15-.15.07-.05.11-.1.15-.15.06-.05.11-.1.15-.15.07-.05.11-.1.15-.15.06-.05.11-.1.15-.15.07-.05.11-.1.15-.15.06-.05.11-.1.15-.15.16-.13.24-.25.24-.4 0-.5-.58-.94-.72-.94Z"/>
  </g>
  <g id="uuid-bcebcb57-18f4-42a8-80dc-94cbe006539b">
    <path d="M12.26 50.76c-3.29 0-9.8-4.33-9.8-7.13s3.18-5.48 8.5-5.48c14.62 0 25.2 8.13 26.64 9.98-1.29.62-5.99 2.37-8.11 2.37-.5 0-.62-.11-.62-.11l-1.8-1.66c-2.23-2.07-10.01-8.84-16.47-8.84-2.87 0-4.46 1.7-4.46 2.88 0 4.27 4.62 6.67 6.73 7.11 1.04.21 1.19.42 1.2.43-.01.19-.58.45-1.82.45Zm31.48-5.9c-.55-.02-1.73-.07-2.24-.15.03-.16.12-.26.39-.43 4.46-2.74 6.36-6.76 5.22-11.05-1.58-5.94-8.41-10.76-15.54-10.98l-9.5-.29h-.59c-3.69-.06-11.38-.17-11.38-6.84S21.53 1 27.67 1c.63 0 1.51.36 2.61 1.07 1.99 1.28 7.74 4.11 9.2 4.11.2 0 .32 0 2.13-1.56C43 3.41 43.37 3.31 43.4 3.3c.14 0 .25.01.33.02-.72.88-3.34 3.43-5.31 5.35-1.3 1.27-2.54 2.47-3.42 3.37-.5-.3-1.04-.62-1.6-.97-3.37-2.05-7.57-4.59-10.27-4.59-6.37 0-7.05 4.33-7.05 6.19 0 1.74 1.05 7.41 14.52 7.41l8.98-.07c6.47 0 13.16 3.99 13.16 10.66 0 7.81-6.77 14.19-8.96 14.19h-.03Zm-7.57-5.69c-.6 0-.98-.16-1.04-.25.63-.88.89-1.58.89-2.28 0-1.62-2.97-4.82-8.41-4.89l-8.86-.07c-12.66-.24-14.12-3.61-14.12-6.12 0-2.38.44-3.78 1.21-3.89.02.12.02.33.02.43 0 3.37 4.74 8.06 12.45 8.06l13.1.07c3.6 0 11.02 1.2 11.02 4.9 0 2.08-3.53 4.04-6.27 4.04Z" class="uuid-62089e8b-849d-4560-a93b-221019f09e7c"/>
    <path d="M27.67 1.5c.37 0 1.07.17 2.34.99 1.88 1.22 7.78 4.19 9.47 4.19.1 0 .19 0 .3-.04-.58.57-1.17 1.14-1.7 1.66-1.17 1.14-2.29 2.23-3.15 3.1-.4-.24-.83-.5-1.26-.76-3.6-2.19-7.68-4.67-10.53-4.67-7.01 0-7.55 5.12-7.55 6.69 0 1.86 1.08 7.91 15.02 7.91h.32l8.5-.07h.16c6.22 0 12.66 3.8 12.66 10.16 0 7.87-6.69 13.69-8.46 13.69-.23 0-.61-.02-1-.05 4.22-2.84 5.98-6.9 4.83-11.22-1.64-6.15-8.67-11.13-16.01-11.35l-9.51-.29h-.59c-5.65-.09-10.89-.91-10.89-6.34 0-6.62 11.1-13.62 17.07-13.62M5.43 22.89c.63 3.82 5.75 7.77 12.88 7.77l13.11.07c3.67 0 10.52 1.29 10.52 4.4 0 1.75-3.36 3.54-5.77 3.54-.08 0-.16 0-.23-.01.32-.6.59-1.28.59-2.01 0-1.79-3.14-5.31-8.91-5.39l-8.85-.07c-13.64-.25-13.64-4.3-13.64-5.62s.13-2.13.3-2.67m5.54 15.76c13.27 0 23.36 6.9 25.81 9.3-1.75.73-5.56 2.05-7.28 2.05-.19 0-.29-.02-.34-.03l-1.74-1.6c-2.27-2.11-10.17-8.98-16.81-8.98-2.97 0-4.96 1.75-4.96 3.38 0 4.34 4.24 6.81 6.69 7.5h-.08c-3.3 0-9.3-4.28-9.3-6.63s3.06-4.98 8-4.98M27.67.5C21.12.5 9.6 7.99 9.6 15.12c0 7.56 9 7.27 12.46 7.34l9.5.29c12.1.36 21.82 13.9 10.08 21.1-.72.43-.65.79-.65 1.15 0 .22.94.29 2.74.36h.04c2.62 0 9.46-6.67 9.46-14.69 0-6.93-6.94-11.16-13.66-11.16h-.17l-8.5.07h-.31c-10.77 0-14.02-3.7-14.02-6.91 0-2.59 1.3-5.69 6.55-5.69 3.1 0 8.5 3.67 11.95 5.69 2.59-2.66 9.29-8.93 9.29-9.43 0-.29-.36-.43-1.01-.43-.29 0-1.01.5-2.09 1.44s-1.73 1.44-1.8 1.44c-1.22 0-6.7-2.59-8.93-4.03C29.31.87 28.37.51 27.65.51ZM5.93 21.17c-1.37 0-1.8 2.02-1.8 4.39 0 3.53 3.02 6.41 14.62 6.62l8.86.07c5.26.07 7.92 3.17 7.92 4.39 0 .65-.29 1.3-.79 2.09-.36.58.5.94 1.44.94 2.81 0 6.77-2.02 6.77-4.54 0-4.25-8.06-5.4-11.52-5.4l-13.11-.07c-7.42 0-11.95-4.39-11.95-7.56 0-.36 0-.94-.43-.94Zm5.04 16.49c-5.69 0-9 3.1-9 5.98 0 3.17 6.77 7.63 10.3 7.63 1.51 0 2.3-.36 2.3-1.01 0-.36-.5-.65-1.58-.86-1.73-.36-6.34-2.52-6.34-6.62 0-.94 1.44-2.38 3.96-2.38 5.83 0 13.03 5.83 16.13 8.71l1.8 1.66c.18.17.52.24.96.24 2.58 0 8.76-2.44 8.76-2.69 0-1.15-11.45-10.66-27.29-10.66Z" class="uuid-591a01a2-7e97-427e-9709-418b853f9482"/>
    <path d="M73.36 59.34c-.23-.06-.68-.27-1.09-.46-1.43-.67-3.81-1.78-6.81-1.78-.07 0-.15 0-.25-.02-.18-.02-.4-.04-.68-.04-1.42 0-3.41.54-6.08 1.64-.04-.09-.19-.44-.2-.58 0-.15.32-.47.43-.58l1.54-1.18c.66-.44.99-1.28.99-2.63v-9.87c0-.67-.27-1.8-2.08-1.8h-3.6c-.59 0-1.01-.43-1.01-1.01s.43-1.01 1.01-1.01h2.88c.9 0 1.59-.46 1.97-1.3l.16-.35c.28-.59.6-1.27.6-2.09V24.11c0-1.19-.78-2.07-1.8-3.09l-.36-.36c-.43-.43-.91-.65-1.43-.65-.37 0-.69.1-1 .3l-.7.42c-.1.07-.19.07-.39.07-.37 0-.65-.28-.65-.65 0-.22.05-.36.08-.39l5.25-3.67c.11-.07.26-.17.43-.29.47-.33 1.12-.77 1.52-.77.62 0 1.18.57 1.67 1.08l.21.21L66.86 19c.75.67 1.38 1 1.92 1 .59 0 1.12-.44 1.73-.95l.38-.32 4.09-3.09c.87-.62 1.6-.69 2.07-.69.93 0 2.78.96 4.27 2.57.88.95 2.33 2.9 2.14 5.31L82.09 40.4c-.06.58-.45 1.1-1.2 1.56-.99.57-2.13 1.54-4.05 3.46-.17.17-.43.46-.73.8-.52.59-1.85 2.09-2.39 2.34-1.04-1.61-2.15-2.56-3.01-2.56-1.96 0-3.38 2.88-3.38 6.84 0 2.15 1.47 2.94 2.66 3.58.23.12.46.25.68.38l2.1 1.23c.75.45.8.94.78 1.02l-.2.29Zm1.32-40.21c-.4 0-.84.12-1.36.36l-3.6 1.66c-.78.35-1.23 1.25-1.23 2.47v15.19c0 1.62.84 2.8 2.25 3.15l2.97.65c.18.05.38.07.57.07.59 0 1.13-.24 1.5-.69.36-.43.55-1.01.55-1.67V21.17c0-1.25-.63-2.03-1.66-2.03Z" class="uuid-62089e8b-849d-4560-a93b-221019f09e7c"/>
    <path d="M77.07 15.47c.7 0 2.45.84 3.91 2.41.82.89 2.18 2.71 2.01 4.93l-1.37 17.55c-.03.27-.16.69-.94 1.18-1.05.6-2.22 1.59-4.17 3.54-.19.19-.45.48-.75.82-.43.48-1.31 1.48-1.88 1.97-1.07-1.53-2.17-2.36-3.14-2.36-2.28 0-3.88 3.02-3.88 7.34 0 2.45 1.69 3.35 2.92 4.02.22.12.45.24.67.38l1.93 1.13c-1.48-.69-3.87-1.77-6.9-1.77-.06 0-.13 0-.2-.02-.18-.02-.42-.04-.73-.04-1.35 0-3.17.45-5.55 1.38l.01-.01 1.51-1.16c.81-.56 1.2-1.56 1.2-3.04v-9.87c0-.54-.19-2.3-2.58-2.3h-3.6c-.31 0-.51-.2-.51-.51s.2-.51.51-.51h2.88c1.1 0 1.97-.57 2.43-1.6.05-.11.1-.22.16-.34.29-.61.65-1.37.65-2.3V24.12c0-1.38-.88-2.38-1.95-3.44l-.36-.36c-.52-.52-1.14-.8-1.79-.8-.48 0-.88.12-1.23.36l-.72.43h-.13c-.1 0-.15-.06-.15-.15v-.07l5.09-3.56c.13-.08.28-.19.44-.3.29-.2.98-.68 1.23-.69.41 0 .91.52 1.31.93l.24.24 2.89 2.67c.85.76 1.57 1.12 2.25 1.12.77 0 1.39-.52 2.05-1.06.12-.1.25-.21.36-.29l4.08-3.08c.76-.54 1.39-.61 1.79-.61m-2.78 27.71c1.48 0 2.56-1.2 2.56-2.86V21.16c0-1.52-.87-2.53-2.16-2.53-.47 0-.99.13-1.57.4l-3.59 1.65c-.97.43-1.53 1.5-1.53 2.93V38.8c0 1.87.98 3.22 2.66 3.64l2.92.64c.24.06.47.09.7.09m2.78-28.71c-.5 0-1.37.07-2.38.79l-4.1 3.1c-.72.58-1.3 1.15-1.8 1.15-.36 0-.86-.22-1.58-.86l-2.88-2.66c-.58-.58-1.3-1.44-2.23-1.44-.72 0-1.66.79-2.23 1.15l-5.26 3.67c-.22.14-.29.5-.29.79 0 .65.5 1.15 1.15 1.15.22 0 .43 0 .65-.14l.72-.43c.22-.14.43-.22.72-.22.43 0 .79.22 1.08.5l.36.36c1.08 1.08 1.66 1.8 1.66 2.74v12.17c0 .86-.43 1.58-.72 2.23-.29.65-.79 1.01-1.51 1.01h-2.88c-.86 0-1.51.65-1.51 1.51s.65 1.51 1.51 1.51h3.6c1.08 0 1.58.43 1.58 1.3v9.87c0 1.37-.36 1.94-.79 2.23l-1.58 1.22c-.22.22-.58.58-.58.94 0 .27.31 1.09.7 1.09.03 0 .06 0 .09-.01 3.4-1.41 5.06-1.64 5.98-1.64.45 0 .72.05.93.05 4.2 0 7.12 2.26 7.99 2.26.1 0 .17-.03.22-.1l.29-.43c.22-.21.14-1.08-.94-1.73l-2.09-1.22c-1.3-.79-3.1-1.3-3.1-3.53 0-3.74 1.3-6.34 2.88-6.34.58 0 1.58.72 2.67 2.45.06.1.14.15.25.15.81 0 2.86-2.61 3.57-3.31 1.8-1.8 2.95-2.81 3.96-3.38.94-.58 1.37-1.22 1.44-1.94l1.37-17.57c.36-4.68-4.83-8.42-6.91-8.42Zm-2.78 27.71c-.15 0-.3-.02-.46-.06l-2.95-.65c-1.15-.29-1.87-1.22-1.87-2.66V23.61c0-.94.29-1.73.94-2.02l3.6-1.66c.47-.22.85-.31 1.15-.31 1.07 0 1.16 1.14 1.16 1.53V40.3c0 1.12-.64 1.86-1.56 1.86Z" class="uuid-591a01a2-7e97-427e-9709-418b853f9482"/>
    <path d="M100.95 48.1c-.25 0-.6-.11-.99-.31-2.79-1.59-6.05-2.86-8.07-3.14-.45-.06-1.08-.19-1.43-.31.11-.21.31-.51.47-.75.46-.7 1.04-1.57 1.3-2.57.34-1.18.38-2.16.38-2.79l.58-19.07c0-.25.04-.32.26-.45l6.1-3.3c.1-.05.24-.14.4-.23.39-.24.92-.57 1.38-.57.08.01.29.2.44.31l.18.15 7.1 6.74c.06.07.17.19.29.31.48.51 1.21 1.28 1.21 1.91 0 .54-.26 1.12-.83 1.85l-5.27 7.43c-.5.64-.79.82-1 .91-.04.02-.07.03-.1.05-.07-.08-.15-.19-.15-.31.26-.27.31-.57.35-.77 0-.05.02-.11.03-.13l1.31-1.59c.47-.56.98-1.53.98-2.55 0-.93-.77-1.77-1.01-2.01l-3.24-3.24c-.41-.41-.71-.58-1-.58-1.29 0-1.44 1.89-1.44 3.31v13.54c0 2.12 1.2 2.73 2.71 3.5l.51.26c.79.43 1.74.71 2.46.71.57 0 .87-.16 1.14-.3l.09-.05 2.93-1.98c.35-.25.55-.32.65-.34.11.08.29.27.3.42-.02 0-.08.06-.26.16l-7.08 4.84c-1.04.69-1.55.9-1.68.92Z" class="uuid-62089e8b-849d-4560-a93b-221019f09e7c"/>
    <path d="M101.21 15.12c.07.05.16.13.23.19l.15.13 7.07 6.71c.09.1.19.21.3.33.38.4 1.07 1.13 1.07 1.57s-.22.9-.75 1.58l-3.08 4.35c.09-.33.14-.68.14-1.03 0-1.09-.81-2.02-1.16-2.36l-3.24-3.24c-.36-.36-.8-.73-1.36-.73-1.94 0-1.94 2.77-1.94 3.81v13.54c0 2.43 1.45 3.16 2.98 3.94.16.08.33.17.49.25.87.48 1.91.77 2.71.77h.2l-2.7 1.85c-.82.55-1.29.77-1.46.83-.11-.01-.33-.06-.68-.24-2.86-1.62-6.17-2.91-8.27-3.21-.2-.02-.46-.07-.7-.12.04-.06.07-.11.11-.16.46-.69 1.08-1.64 1.36-2.69.27-.95.4-1.89.4-2.91l.58-19.11 6.07-3.29c.13-.06.28-.16.45-.26.28-.17.69-.43 1-.48m.12-1.01c-.79 0-1.58.65-2.02.86l-6.12 3.31c-.36.22-.5.43-.5.86l-.58 19.08c0 .79-.07 1.66-.36 2.66-.43 1.66-1.87 3.03-1.87 3.67 0 .22 1.37.5 1.94.58 2.02.29 5.26 1.58 7.92 3.1.43.21.86.36 1.22.36.22 0 .86-.29 1.94-1.01l7.06-4.82c.36-.22.5-.36.5-.58 0-.5-.58-.94-.72-.94-.22 0-.5.07-1.01.43l-2.88 1.94c-.29.14-.5.29-1.01.29-.58 0-1.44-.22-2.23-.65-1.8-.94-2.95-1.3-2.95-3.31V26.42c0-2.66.65-2.81.94-2.81.14 0 .36.14.65.43l3.24 3.24c.22.22.86.94.86 1.66 0 .94-.5 1.8-.86 2.23l-1.3 1.58c-.22.22-.07.58-.36.87-.07.07-.14.21-.14.36 0 .5.5.86.58.86s.22-.07.36-.14c.36-.14.72-.43 1.22-1.08l5.26-7.42c.5-.65.94-1.37.94-2.16 0-1.01-1.15-2.02-1.66-2.59l-7.13-6.77c-.36-.29-.65-.58-.94-.58Z" class="uuid-591a01a2-7e97-427e-9709-418b853f9482"/>
    <path d="M126.94 48.11c-.17 0-.41-.1-.72-.29-2.06-1.42-6.45-3.17-8.62-3.17-.39 0-.59-.09-.62-.15-.02-.04-.03-.25.25-.65.77-1.1 1.16-2.99 1.16-5.61V21.75c0-.06.06-.6 2.12-1.72 3.17-1.77 6.07-3.88 6.7-4.66.14-.16.27-.35.39-.53.08-.11.17-.25.24-.33l6.66 3.58c.95.51 1.85 1 1.97 1.45.02.06.06.23-.15.6l-2.08 3.45-.05.1s-.24.16-.32.16c-.36 0-.69-.15-1.34-.51l-3.23-1.94c-.11-.06-.21-.13-.32-.2-.38-.25-.8-.53-1.25-.53-.2 0-.38.05-.54.16-1.41.86-1.52 1.38-1.52 2.07v16.12c-.02.71-.05 2.04 1.17 2.56l2.95 1.29c.44.18.78.26 1.07.26.44 0 .99-.32 1.68-.8l.11-.08 2.27-1.83c.45-.32.63-.32.69-.32.05 0 .14.06.23.21.04.06.05.09.06.14-.05.05-.15.14-.22.2-.11.1-.23.2-.35.32l-6.88 5.88c-.23.21-.41.4-.58.58-.43.45-.67.68-.92.68Z" class="uuid-62089e8b-849d-4560-a93b-221019f09e7c"/>
    <path d="m127.99 15.15 6.27 3.37c.61.33 1.63.88 1.73 1.12 0 0 0 .07-.09.22l-2.09 3.46v.02c-.23-.03-.52-.16-.99-.43l-3.26-1.95c-.09-.05-.19-.12-.29-.18-.41-.27-.93-.61-1.53-.61-.3 0-.58.08-.79.23-1.5.92-1.77 1.56-1.77 2.51v16.11c-.02.71-.05 2.37 1.46 3.02l2.98 1.31c.48.19.89.29 1.23.29.27 0 .55-.08.85-.21l-3.62 3.09c-.22.2-.41.4-.58.58-.2.21-.48.49-.56.53 0 0-.13 0-.42-.19-2.14-1.48-6.58-3.26-8.9-3.27v-.01c.85-1.21 1.26-3.14 1.26-5.9V21.84c.06-.11.39-.55 1.86-1.35 2.96-1.65 6.09-3.84 6.82-4.75.17-.19.31-.39.42-.56m-.17-1.17c-.36 0-.58.59-1.01 1.07-.58.72-3.46 2.81-6.55 4.54-1.58.86-2.38 1.58-2.38 2.16v16.49c0 3.17-.58 4.61-1.08 5.33-.72 1.08-.22 1.58.79 1.58 2.02 0 6.26 1.66 8.35 3.1.41.26.72.37.99.37.63 0 1.01-.62 1.82-1.37l6.91-5.91c.36-.36.72-.58.72-.79 0-.14 0-.29-.14-.5-.14-.22-.36-.43-.65-.43-.22 0-.5.07-1.01.43l-2.23 1.8c-.22.14-1.08.79-1.51.79-.22 0-.5-.07-.86-.22l-2.95-1.3c-1.01-.43-.86-1.66-.86-2.3V22.94c0-.5 0-.86 1.3-1.66.08-.05.17-.08.27-.08.41 0 .91.42 1.32.65l3.24 1.94c.65.36 1.08.58 1.58.58.29 0 .72-.29.79-.5l2.09-3.46c.72-1.22-.29-1.8-2.02-2.74l-6.7-3.6c-.08-.05-.15-.07-.22-.07Z" class="uuid-591a01a2-7e97-427e-9709-418b853f9482"/>
    <path d="M148.27 48.1c-.14 0-.2-.03-.36-.12-.06-.04-.13-.07-.21-.11l-5.41-2.6c-.2-.08-.29-.25-.29-.49 0-.2.07-.34.23-.46l.63-.42c.44-.25 1.88-1.07 1.88-3.66V18.21c0-.71-.51-1.22-1.22-1.22h-2.23c-.16 0-.22-.06-.22-.22 0-.06 0-.08.07-.15l8.33-11.14c.06-.09.19-.16.32-.16.23 0 .44.21.44.44v5.26c0 2.26 1.81 4.1 4.03 4.1h4.6c-.04.67-.37.8-.86.8-.82 0-1.54.21-2.09.6-.27.17-.54.35-.79.51-.24.16-.44.3-.62.4-.52.34-.79.69-1.04 1.11l-.06.11c-.24.4-.64 1.06-.86 1.98l-3.6 17.51c-.22.94-.47 2.02.48 2.49l2.44 1.29c.37.23.75.35 1.1.35.29 0 .61-.13.95-.39l1.59-1.23s.12-.09.2-.14c.15-.11.42-.31.53-.31l.58.73s-.04.11-.36.38l-7.71 6.63c-.15.09-.33.17-.47.17Z" class="uuid-62089e8b-849d-4560-a93b-221019f09e7c"/>
    <path d="M149.72 5.97v5.04c0 2.54 2.03 4.6 4.53 4.6h2.36c-.36.11-.69.27-.97.47-.29.18-.56.36-.8.52-.23.15-.43.29-.64.41-.57.38-.88.78-1.17 1.25l-.06.1c-.24.39-.69 1.12-.92 2.15l-3.6 17.47c-.22.96-.56 2.41.72 3.05l2.43 1.28c.47.28.92.42 1.35.42.4 0 .82-.16 1.26-.5l1.56-1.2c.07-.05.14-.1.22-.16.03-.02.07-.05.11-.08l.06.07s-.02.02-.04.03l-7.65 6.58c-.14.08-.2.09-.19.1l-.12-.06c-.07-.04-.15-.08-.24-.13l-5.4-2.59v-.04l.03-.06.58-.39c1.41-.82 2.13-2.2 2.13-4.09V18.18c0-.98-.74-1.72-1.72-1.72h-1.66l7.86-10.52m.07-1.15c-.29 0-.58.14-.72.36l-8.28 11.09c-.14.14-.22.29-.22.5 0 .43.29.72.72.72h2.23c.43 0 .72.29.72.72v22.03c0 2.23-1.15 2.95-1.66 3.24l-.65.43c-.29.22-.43.5-.43.86 0 .43.22.79.58.94l5.4 2.59c.29.14.43.29.79.29.29 0 .58-.14.79-.29l7.7-6.62c.43-.36.72-.72.43-1.08l-.58-.72c-.12-.14-.26-.2-.4-.2-.35 0-.73.35-1.04.56l-1.58 1.22c-.29.22-.5.29-.65.29-.22 0-.5-.07-.86-.29l-2.45-1.29c-.58-.29-.43-1.01-.22-1.95l3.6-17.5c.22-.94.65-1.58.86-1.94.22-.36.43-.65.86-.94.36-.22.86-.58 1.44-.94.5-.36 1.15-.5 1.8-.5.94 0 1.37-.5 1.37-1.44 0-.32-.16-.36-.73-.36h-4.38c-1.94 0-3.53-1.58-3.53-3.6V5.71c0-.5-.43-.94-.94-.94Z" class="uuid-591a01a2-7e97-427e-9709-418b853f9482"/>
    <path d="M170.01 48.24c-.26 0-.92-.4-1.55-.78-.49-.3-1.05-.63-1.68-.96-1.47-.8-3.32-1.74-3.91-1.91-.18-.08-.36-.29-.36-.38.06-.13.36-.2.55-.25.9-.21 2.41-.57 2.41-3.35V25.06c0-.31-.5-2.88-1.62-3.53-.45-.27-1.12-.43-1.84-.43h-.72c-.23 0-.36-.02-.45-.08l5.7-5.91c.06-.07.16-.09.3-.09.09 0 .19 0 .28.01.1 0 .2.01.29.01.13 0 .36.06.87.57l3.09 3.23c.52.6 1.16.95 1.73.95.45 0 1.11-.17 1.7-1l2.14-3.05c.53-.76.65-.92 1.12-.92.33 0 .49.12.76.46l4.28 5.46c.22.27.29.37.29.5 0 .11-.17.36-.33.6l-2.97 4.6c-.13.21-.39.35-.66.35s-.51-.14-.76-.46l-2.93-4.15c-.33-.45-.85-.72-1.34-.72-.93 0-1.65.73-1.65 1.65v16.78c0 1.71.96 3.53 2.73 3.53.19 0 .64-.11 1.05-.36l1.71-.92.17-.08c.11-.06.27-.14.32-.14.07.03.27.27.29.39v.13s-.05.08-.27.21l-7.79 5.12c-.11.07-.2.14-.29.21-.26.2-.38.28-.66.28Z" class="uuid-62089e8b-849d-4560-a93b-221019f09e7c"/>
    <path d="M178.08 15.33c.12 0 .15 0 .36.27l4.18 5.34.11.13c.05.06.1.12.14.18-.05.09-.14.22-.21.32l-.1.14-2.9 4.49s-.11.09-.22.09c-.04 0-.15 0-.35-.25l-2.95-4.17c-.42-.56-1.08-.9-1.74-.9-1.21 0-2.15.95-2.15 2.15V39.9c0 1.95 1.13 4.03 3.23 4.03.14 0 .33-.03.55-.1l-5.35 3.52c-.11.08-.22.15-.31.22-.25.18-.25.18-.33.19-.21-.03-.82-.41-1.32-.71-.49-.3-1.06-.64-1.69-.97-.26-.14-2.25-1.22-3.42-1.73.97-.28 2.36-.99 2.36-3.73V25.07c0-.24-.45-3.13-1.85-3.95-.53-.32-1.3-.5-2.1-.5h-.07l4.91-5.09c.08 0 .16 0 .24.01.1 0 .2.01.28.01h.03c.01 0 .16.05.52.41l3.07 3.21c.64.73 1.39 1.13 2.12 1.13.57 0 1.4-.21 2.11-1.22l1.87-2.66c.1-.14.19-.27.27-.39.49-.7.51-.7.71-.7m0-1c-.86 0-1.08.5-1.8 1.51l-1.87 2.66c-.36.5-.79.79-1.3.79-.36 0-.86-.22-1.37-.79l-3.1-3.24c-.5-.5-.86-.72-1.22-.72-.16 0-.36-.03-.56-.03-.25 0-.5.04-.66.24l-5.98 6.19c.22.5.5.65 1.08.65h.72c.65 0 1.22.14 1.58.36.86.5 1.37 2.81 1.37 3.1V40.6c0 3.82-2.95 2.23-2.95 3.6 0 .36.36.72.72.87.5.14 2.23 1.01 3.82 1.87 1.66.87 2.81 1.8 3.46 1.8.58 0 .79-.29 1.22-.58l7.78-5.11c.58-.36.5-.58.5-.79 0-.29-.43-.86-.79-.86-.22 0-.43.14-.72.29l-1.73.94c-.36.22-.72.29-.79.29-1.51 0-2.23-1.66-2.23-3.03V23.11c0-.65.5-1.15 1.15-1.15.36 0 .72.22.94.5l2.95 4.18c.29.36.65.65 1.15.65.43 0 .86-.22 1.08-.58l2.88-4.46c.29-.43.5-.72.5-1.01 0-.36-.22-.58-.5-.94l-4.18-5.33c-.29-.36-.58-.65-1.15-.65Z" class="uuid-591a01a2-7e97-427e-9709-418b853f9482"/>
    <path d="M197.07 48.1c-.18 0-.49-.06-.99-.31-2.79-1.58-6.05-2.85-8.07-3.14-.45-.06-1.08-.19-1.43-.31.11-.21.31-.52.47-.75.46-.7 1.04-1.57 1.3-2.57.34-1.18.38-2.16.38-2.79l.58-19.07c0-.25.04-.32.26-.45l6.1-3.3c.1-.05.24-.14.4-.23.39-.24.92-.57 1.38-.57.07.01.29.19.44.31l.19.15 7.1 6.74c.06.07.17.19.29.31.48.51 1.21 1.28 1.21 1.91 0 .54-.26 1.11-.83 1.85l-5.27 7.43c-.5.64-.79.82-1 .91-.04.02-.07.03-.1.05-.07-.08-.15-.19-.15-.31.26-.27.32-.57.35-.77 0-.05.02-.11.03-.13l1.31-1.59c.47-.56.98-1.53.98-2.55 0-.93-.77-1.77-1.01-2.01l-3.24-3.24c-.41-.41-.71-.58-1-.58-1.29 0-1.44 1.89-1.44 3.31v13.54c0 2.12 1.2 2.73 2.71 3.5l.51.26c.79.43 1.74.71 2.46.71.57 0 .87-.16 1.14-.3l.09-.05 2.93-1.98c.35-.25.55-.32.65-.34.11.08.29.27.3.42-.02 0-.08.06-.26.16l-7.08 4.84c-1.04.69-1.55.9-1.68.92Z" class="uuid-62089e8b-849d-4560-a93b-221019f09e7c"/>
    <path d="M197.33 15.12c.07.05.16.13.23.19l.16.13 7.07 6.71c.09.1.19.21.3.33.38.4 1.07 1.13 1.07 1.57s-.22.9-.75 1.58l-3.08 4.35c.09-.33.14-.68.14-1.03 0-1.09-.81-2.02-1.16-2.36l-3.24-3.24c-.36-.36-.8-.73-1.36-.73-1.94 0-1.94 2.77-1.94 3.81v13.54c0 2.43 1.45 3.16 2.99 3.94.16.08.33.17.49.25.87.48 1.91.77 2.71.77h.2l-2.7 1.85c-.82.55-1.29.77-1.46.83-.11-.01-.33-.06-.69-.24-2.86-1.62-6.17-2.91-8.27-3.2-.2-.02-.46-.07-.7-.12.04-.06.07-.11.11-.16.46-.69 1.08-1.64 1.36-2.69.27-.95.4-1.89.4-2.91l.58-19.11 6.07-3.29c.13-.06.28-.16.45-.26.28-.17.69-.43 1-.48m.12-1.01c-.79 0-1.58.65-2.02.86l-6.12 3.31c-.36.22-.5.43-.5.86l-.58 19.08c0 .79-.07 1.66-.36 2.66-.43 1.66-1.87 3.03-1.87 3.67 0 .22 1.37.5 1.94.58 2.02.29 5.26 1.58 7.92 3.1.43.21.86.36 1.22.36.22 0 .86-.29 1.94-1.01l7.06-4.82c.36-.22.5-.36.5-.58 0-.5-.58-.94-.72-.94-.22 0-.5.07-1.01.43l-2.88 1.94c-.29.14-.5.29-1.01.29-.58 0-1.44-.22-2.23-.65-1.8-.94-2.95-1.3-2.95-3.31V26.43c0-2.66.65-2.81.94-2.81.14 0 .36.14.65.43l3.24 3.24c.22.22.86.94.86 1.66 0 .94-.5 1.8-.86 2.23l-1.3 1.58c-.22.22-.07.58-.36.87-.07.07-.14.21-.14.36 0 .5.5.86.58.86s.22-.07.36-.14c.36-.14.72-.43 1.22-1.08l5.26-7.42c.5-.65.94-1.37.94-2.16 0-1.01-1.15-2.02-1.66-2.59l-7.13-6.77c-.36-.29-.65-.58-.94-.58Z" class="uuid-591a01a2-7e97-427e-9709-418b853f9482"/>
  </g>
</svg>
