<svg xmlns="http://www.w3.org/2000/svg" width="16" height="16" fill="none">
  <rect width="16" height="16" fill="#1A1A19" rx="4"/>
  <path fill="#E4E4E3" d="M12.8035 8.976c0 1.344-1.152 2.46-1.584 2.448-.3-.012-.456-.024-.456-.06 0-.06-.012-.12.108-.192 1.956-1.2.336-3.456-1.68-3.516l-1.584-.048c-.576-.012-2.076.036-2.076-1.224 0-1.188 1.92-2.436 3.012-2.436.12 0 .276.06.48.192.372.24 1.284.672 1.488.672.012 0 .12-.084.3-.24.18-.156.3-.24.348-.24.108 0 .168.024.168.072 0 .084-1.116 1.128-1.548 1.572-.576-.336-1.476-.948-1.992-.948-.876 0-1.092.516-1.092.948 0 .54.552 1.164 2.388 1.152l1.416-.012c1.128-.012 2.304.696 2.304 1.86Zm-1.716.744c0 .42-.66.756-1.128.756-.156 0-.3-.06-.24-.156.084-.132.132-.24.132-.348 0-.204-.444-.72-1.32-.732l-1.476-.012c-1.932-.036-2.436-.516-2.436-1.104 0-.396.072-.732.3-.732.072 0 .072.096.072.156 0 .528.756 1.26 1.992 1.26l2.184.012c.576 0 1.92.192 1.92.9Zm-.78 2.196c0 .048-1.416.6-1.62.408l-.3-.276c-.516-.48-1.716-1.452-2.688-1.452-.42 0-.66.24-.66.396 0 .684.768 1.044 1.056 1.104.18.036.264.084.264.144 0 .108-.132.168-.384.168-.588 0-1.716-.744-1.716-1.272 0-.48.552-.996 1.5-.996 2.64 0 4.548 1.584 4.548 1.776Z"/>
</svg>
