<svg xmlns="http://www.w3.org/2000/svg" width="940" height="24" fill="none">
  <path fill="#F22B0C" d="M0 11h426v2H0v-2Zm514 0h426v2H514v-2Zm-50.938 8.2-1.352 2.1818c-.64 1.0182-1.423 1.1637-2.348 1.1637h-9.037c-1.707 0-1.85-.1455-2.277-1.2364-1.067-2.6909-2.917-4.8727-5.123-6.9091-.783-.7273-.925-1.1636-.925-1.4545 0-.3637.213-.5819.427-.9455 1.494-2.69091 2.562-5.89091 2.562-8.21818 0-1.45455-.143-2.47273-.143-3.054548 0-.363637.143-.581819.285-.581819.783.000001 3.415 2.472727 3.415 7.418187 0 2.18181-.711 4.14546-1.352 5.52726-.64 1.3091-.925 1.6727-.925 2.0364 0 .2909.427.6545.783 1.2363.427.8 1.85 1.0182 2.562 1.0182.284 0 4.483.2182 6.19.2182 1.068 0 1.993-.0727 2.348-.3636 1.21-.9455 1.495-1.4546 1.779-2.1819.356-.8727 1.352-1.5272 1.352-2.4 0-.9454-.498-1.8181-1.067-2.3272l-.854-.7273c-1.138-.94546-1.779-1.38182-1.779-2.03636 0-.36364.143-.65455.427-1.16364l3.273-5.23636C461.924.145454 462.707-4e-8 463.632 0l9.036 4e-7c1.708 7e-8 1.85.1454546 2.277 1.2363596.498 1.30909 1.21 2.47273 1.993 3.49091l1.352-2.10909c.64-1.01818 1.423-1.16363 2.348-1.16363h9.037c1.707 0 1.85.14545 2.277 1.23636 1.067 2.69091 2.917 4.87273 5.123 6.90909.783.7273.925 1.1636.925 1.4545 0 .3637-.213.5819-.427.9455-1.494 2.6909-2.562 5.8909-2.562 8.2182 0 1.4545.143 2.4727.143 3.0545 0 .3637-.143.5818-.285.5818-.783 0-3.415-2.4727-3.415-7.4181-.072-2.1819.711-4.1455 1.352-5.5273.64-1.3091.925-1.67274.925-2.03637 0-.29091-.427-.50909-.783-1.23637-.427-.8-1.85-1.01818-2.562-1.01818-.284 0-4.483-.21818-6.19-.21818-1.068 0-1.993.07273-2.348.36364-1.21.94545-1.495 1.45454-1.779 2.18182-.356.87272-1.352 1.52724-1.352 2.40004 0 .9454.427 1.8181 1.067 2.3272l.854.7273c1.138.9455 1.779 1.3818 1.779 2.0364 0 .3636-.143.6545-.427 1.1636l-3.273 5.2364C478.076 23.8545 477.293 24 476.368 24h-9.036c-1.708 0-1.85-.1455-2.277-1.2364-.498-1.3091-1.21-2.4727-1.993-3.5636Zm12.951-12.94545s-.071 0-.071-.07273c-.427-.8-1.85-1.01818-2.562-1.01818-.285 0-4.341-.21818-6.048-.21818-1.139 0-2.135.07272-2.491.36363-1.209.94545-1.494 1.45455-1.779 2.18182-.356.87273-1.138 1.38182-1.352 2.03636-.071.21818-.142.43637-.142.72723 0 .8.427 1.3819.996 1.8182l1.068.8728c1.209.9454 1.778 1.3818 1.778 2.0363 0 .3637-.142.6546-.427 1.1637l-.996 1.6s.071 0 .071.0727c.427.8 1.851 1.0182 2.562 1.0182.285 0 4.341.2181 6.048.2181 1.139 0 2.135-.0727 2.491-.3636 1.209-.9454 1.494-1.4545 1.779-2.1818.356-.8727 1.138-1.3818 1.352-2.0364.071-.2182.142-.4363.142-.7272 0-.8-.427-1.3819-.996-1.8182l-1.068-.8728c-1.138-.9454-1.778-1.38177-1.778-2.03632 0-.36363.142-.65454.427-1.16363l.996-1.6Z"/>
</svg>
